<svg xmlns="http://www.w3.org/2000/svg" width="640" height="760" viewBox="0 0 640 760" fill="none">
  <rect width="640" height="760" rx="36" fill="#FDF2F8"/>
  <circle cx="470" cy="140" r="110" fill="#FCE7F3"/>
  <circle cx="130" cy="560" r="140" fill="#FFE4E6"/>
  <path d="M356 156c0 36-29 66-66 66s-66-30-66-66 29-66 66-66 66 30 66 66Z" fill="#FBCFE8"/>
  <path d="M226 314c12-42 50-72 94-72h28c44 0 82 30 94 72l26 92c16 57 21 117 14 176l-5 43H225l-5-43c-7-59-2-119 14-176l26-92Z" fill="#F9A8D4"/>
  <path d="M230 322c10-36 43-62 80-62h20c38 0 71 26 81 62l25 90c14 50 19 102 12 154l-3 25H238l-3-25c-7-52-2-104 12-154l25-90Z" fill="#F472B6"/>
  <path d="M254 408h152c18 0 32 14 32 32v100c0 18-14 32-32 32H254c-18 0-32-14-32-32V440c0-18 14-32 32-32Z" fill="#FFF1F2"/>
  <path d="M290 408c0-28 22-50 50-50h-32c-28 0-50 22-50 50v12h32v-12Z" fill="#F43F5E"/>
  <path d="M382 408v12h32v-12c0-28-22-50-50-50h-32c28 0 50 22 50 50Z" fill="#F43F5E"/>
  <path d="M250 440h160v96c0 10-8 18-18 18H268c-10 0-18-8-18-18v-96Z" fill="#FFE4E6"/>
  <path d="M240 464c0-16 13-30 30-30h116c16 0 30 13 30 30v68c0 16-13 30-30 30H270c-16 0-30-13-30-30v-68Z" fill="#FCE7F3"/>
  <circle cx="320" cy="474" r="8" fill="#F43F5E"/>
  <path d="M202 252c14-30 44-50 78-50h56c34 0 64 20 78 50l12 26H190l12-26Z" fill="#FBCFE8"/>
  <path d="M204 278h232l-12 24c-8 16-24 26-42 26H258c-18 0-34-10-42-26l-12-24Z" fill="#FDA4AF"/>
  <path d="M414 242c18 0 34 12 40 30l8 22h-46l-6-14a24 24 0 0 0-22-14h-8v-24h34Z" fill="#FB7185"/>
  <path d="M218 242h34v24h-8c-10 0-18 6-22 14l-6 14h-46l8-22c6-18 22-30 40-30Z" fill="#FB7185"/>
  <path d="M236 592h168v24H236v-24Z" fill="#FBCFE8"/>
</svg>
